<mxfile host="Electron" modified="2023-08-16T16:43:50.787Z" agent="Mozilla/5.0 (Windows NT 10.0; Win64; x64) AppleWebKit/537.36 (KHTML, like Gecko) draw.io/21.6.8 Chrome/114.0.5735.289 Electron/25.5.0 Safari/537.36" etag="HQVmAm_MI-cyl7LY6Obg" version="21.6.8" type="device">
  <diagram id="C5RBs43oDa-KdzZeNtuy" name="Page-1">
    <mxGraphModel dx="1276" dy="1783" grid="1" gridSize="10" guides="1" tooltips="1" connect="1" arrows="1" fold="1" page="1" pageScale="1" pageWidth="827" pageHeight="1169" math="0" shadow="0">
      <root>
        <mxCell id="WIyWlLk6GJQsqaUBKTNV-0" />
        <mxCell id="WIyWlLk6GJQsqaUBKTNV-1" parent="WIyWlLk6GJQsqaUBKTNV-0" />
        <mxCell id="IEeFdyCGopTc3gh3-DFE-0" value="ActivityDefinition&lt;br&gt;&lt;br&gt;&lt;br&gt;&lt;br&gt;&lt;br&gt;&lt;br&gt;&lt;br&gt;&lt;br&gt;&lt;br&gt;&lt;br&gt;&lt;br&gt;" style="rounded=1;whiteSpace=wrap;html=1;fontSize=12;glass=0;strokeWidth=1;shadow=0;fillColor=#dfdfdf;strokeColor=#82b366;labelPosition=center;verticalLabelPosition=middle;align=center;verticalAlign=middle;" parent="WIyWlLk6GJQsqaUBKTNV-1" vertex="1">
          <mxGeometry x="199.25" y="-30" width="190" height="160" as="geometry" />
        </mxCell>
        <mxCell id="Kh6UWCqLEouyqFOK7ntM-20" value="ObservationDefinition - &lt;i&gt;Group&lt;br&gt;&lt;br&gt;&lt;br&gt;&lt;br&gt;&lt;br&gt;&lt;br&gt;&lt;br&gt;&lt;br&gt;&lt;/i&gt;" style="rounded=1;whiteSpace=wrap;html=1;fontSize=12;glass=0;strokeWidth=1;shadow=0;fillColor=#b5d9a5;strokeColor=#82b366;labelPosition=center;verticalLabelPosition=middle;align=center;verticalAlign=middle;" parent="WIyWlLk6GJQsqaUBKTNV-1" vertex="1">
          <mxGeometry x="210" y="-10" width="168.5" height="130" as="geometry" />
        </mxCell>
        <mxCell id="Kh6UWCqLEouyqFOK7ntM-29" value="" style="rounded=0;whiteSpace=wrap;html=1;fillColor=#fff2cc;strokeColor=#d6b656;" parent="WIyWlLk6GJQsqaUBKTNV-1" vertex="1">
          <mxGeometry x="440" width="310" height="210" as="geometry" />
        </mxCell>
        <mxCell id="PtvGfc8u3fFPzmpzfyYF-6" value="results" style="endArrow=classic;html=1;rounded=0;exitX=0.5;exitY=0;exitDx=0;exitDy=0;entryX=0.5;entryY=1;entryDx=0;entryDy=0;labelBackgroundColor=none;" parent="WIyWlLk6GJQsqaUBKTNV-1" source="fafH0U7rZojqmzMNoOSG-25" target="Kh6UWCqLEouyqFOK7ntM-6" edge="1">
          <mxGeometry x="0.3383" y="15" width="50" height="50" relative="1" as="geometry">
            <mxPoint x="610" y="110" as="sourcePoint" />
            <mxPoint x="686.5" y="150" as="targetPoint" />
            <mxPoint as="offset" />
          </mxGeometry>
        </mxCell>
        <mxCell id="PtvGfc8u3fFPzmpzfyYF-7" value="MedicinalProductDefinition&amp;nbsp;&lt;br&gt;&lt;i style=&quot;border-color: var(--border-color);&quot;&gt;Stelbat Tablets, 20mg&lt;/i&gt;" style="rounded=1;whiteSpace=wrap;html=1;fontSize=12;glass=0;strokeWidth=1;shadow=0;fillColor=#ffe699;" parent="WIyWlLk6GJQsqaUBKTNV-1" vertex="1">
          <mxGeometry x="224.5" y="-100" width="156" height="40" as="geometry" />
        </mxCell>
        <mxCell id="PtvGfc8u3fFPzmpzfyYF-18" value="PlanDefinition&lt;br&gt;&lt;i&gt;Stability Study&lt;/i&gt;" style="rounded=1;whiteSpace=wrap;html=1;fontSize=12;glass=0;strokeWidth=1;shadow=0;fillColor=#cfcfcf;strokeColor=#82b366;" parent="WIyWlLk6GJQsqaUBKTNV-1" vertex="1">
          <mxGeometry x="10" y="-10" width="154" height="40" as="geometry" />
        </mxCell>
        <mxCell id="PtvGfc8u3fFPzmpzfyYF-35" value="req." style="endArrow=classic;html=1;rounded=0;exitX=1;exitY=0.5;exitDx=0;exitDy=0;" parent="WIyWlLk6GJQsqaUBKTNV-1" source="Kh6UWCqLEouyqFOK7ntM-0" edge="1">
          <mxGeometry width="50" height="50" relative="1" as="geometry">
            <mxPoint x="580" y="275" as="sourcePoint" />
            <mxPoint x="200" y="50" as="targetPoint" />
          </mxGeometry>
        </mxCell>
        <mxCell id="fafH0U7rZojqmzMNoOSG-25" value="DiagnosticReport&lt;br&gt;&lt;i&gt;List of values and conclusion&lt;/i&gt;" style="rounded=1;whiteSpace=wrap;html=1;fontSize=12;glass=0;strokeWidth=1;shadow=0;fillColor=#F5DEB3;strokeColor=#82b366;" parent="WIyWlLk6GJQsqaUBKTNV-1" vertex="1">
          <mxGeometry x="540" y="150" width="120" height="50" as="geometry" />
        </mxCell>
        <mxCell id="fafH0U7rZojqmzMNoOSG-42" value="ObservationDefinition - &lt;i&gt;Test Name and criteria&lt;/i&gt;" style="rounded=1;whiteSpace=wrap;html=1;fontSize=12;glass=0;strokeWidth=1;shadow=0;fillColor=#A6C499;strokeColor=#82b366;" parent="WIyWlLk6GJQsqaUBKTNV-1" vertex="1">
          <mxGeometry x="224.5" y="67.5" width="138" height="42.5" as="geometry" />
        </mxCell>
        <mxCell id="Kh6UWCqLEouyqFOK7ntM-0" value="Action&lt;br&gt;at 3 months" style="rounded=1;whiteSpace=wrap;html=1;fontSize=12;glass=0;strokeWidth=1;shadow=0;fillColor=#dfdfdf;strokeColor=#82b366;" parent="WIyWlLk6GJQsqaUBKTNV-1" vertex="1">
          <mxGeometry x="37" y="30" width="100" height="40" as="geometry" />
        </mxCell>
        <mxCell id="Kh6UWCqLEouyqFOK7ntM-1" value="Action&lt;br&gt;at 6 months" style="rounded=1;whiteSpace=wrap;html=1;fontSize=12;glass=0;strokeWidth=1;shadow=0;fillColor=#dfdfdf;strokeColor=#82b366;" parent="WIyWlLk6GJQsqaUBKTNV-1" vertex="1">
          <mxGeometry x="37" y="70" width="100" height="40" as="geometry" />
        </mxCell>
        <mxCell id="Kh6UWCqLEouyqFOK7ntM-4" value="req." style="endArrow=classic;html=1;rounded=0;exitX=1;exitY=0.5;exitDx=0;exitDy=0;" parent="WIyWlLk6GJQsqaUBKTNV-1" source="Kh6UWCqLEouyqFOK7ntM-1" edge="1">
          <mxGeometry width="50" height="50" relative="1" as="geometry">
            <mxPoint x="180" y="90" as="sourcePoint" />
            <mxPoint x="200" y="90" as="targetPoint" />
          </mxGeometry>
        </mxCell>
        <mxCell id="Kh6UWCqLEouyqFOK7ntM-5" value="Observation - &lt;i&gt;Test Name and result&lt;/i&gt;" style="rounded=1;whiteSpace=wrap;html=1;fontSize=12;glass=0;strokeWidth=1;shadow=0;fillColor=#b6d7a8;strokeColor=#82b366;" parent="WIyWlLk6GJQsqaUBKTNV-1" vertex="1">
          <mxGeometry x="450" y="20" width="138" height="45" as="geometry" />
        </mxCell>
        <mxCell id="Kh6UWCqLEouyqFOK7ntM-6" value="Observation - &lt;i&gt;Test Name and result&lt;/i&gt;" style="rounded=1;whiteSpace=wrap;html=1;fontSize=12;glass=0;strokeWidth=1;shadow=0;fillColor=#b6d7a8;strokeColor=#82b366;" parent="WIyWlLk6GJQsqaUBKTNV-1" vertex="1">
          <mxGeometry x="450" y="65" width="138" height="50" as="geometry" />
        </mxCell>
        <mxCell id="Kh6UWCqLEouyqFOK7ntM-7" value="Medication&lt;br&gt;&lt;i&gt;Batch 1&lt;/i&gt;" style="rounded=1;whiteSpace=wrap;html=1;fontSize=12;glass=0;strokeWidth=1;shadow=0;fillColor=#dae8fc;strokeColor=#6c8ebf;" parent="WIyWlLk6GJQsqaUBKTNV-1" vertex="1">
          <mxGeometry x="480" y="-80" width="110" height="40" as="geometry" />
        </mxCell>
        <mxCell id="Kh6UWCqLEouyqFOK7ntM-8" value="" style="endArrow=classic;html=1;rounded=0;exitX=0.75;exitY=0;exitDx=0;exitDy=0;entryX=0;entryY=0.5;entryDx=0;entryDy=0;" parent="WIyWlLk6GJQsqaUBKTNV-1" source="PtvGfc8u3fFPzmpzfyYF-18" target="PtvGfc8u3fFPzmpzfyYF-7" edge="1">
          <mxGeometry width="50" height="50" relative="1" as="geometry">
            <mxPoint x="180" y="60" as="sourcePoint" />
            <mxPoint x="250" y="50" as="targetPoint" />
          </mxGeometry>
        </mxCell>
        <mxCell id="Kh6UWCqLEouyqFOK7ntM-28" value="subject" style="edgeLabel;html=1;align=center;verticalAlign=middle;resizable=0;points=[];" parent="Kh6UWCqLEouyqFOK7ntM-8" vertex="1" connectable="0">
          <mxGeometry x="0.2377" y="-3" relative="1" as="geometry">
            <mxPoint x="-7" as="offset" />
          </mxGeometry>
        </mxCell>
        <mxCell id="Kh6UWCqLEouyqFOK7ntM-9" value="" style="endArrow=classic;html=1;rounded=0;entryX=1;entryY=0.5;entryDx=0;entryDy=0;exitX=0.013;exitY=0.5;exitDx=0;exitDy=0;exitPerimeter=0;" parent="WIyWlLk6GJQsqaUBKTNV-1" source="Kh6UWCqLEouyqFOK7ntM-7" target="PtvGfc8u3fFPzmpzfyYF-7" edge="1">
          <mxGeometry width="50" height="50" relative="1" as="geometry">
            <mxPoint x="610" y="-20" as="sourcePoint" />
            <mxPoint x="340" y="-20" as="targetPoint" />
          </mxGeometry>
        </mxCell>
        <mxCell id="Kh6UWCqLEouyqFOK7ntM-27" value="batch&lt;br&gt;of" style="edgeLabel;html=1;align=center;verticalAlign=middle;resizable=0;points=[];" parent="Kh6UWCqLEouyqFOK7ntM-9" vertex="1" connectable="0">
          <mxGeometry x="-0.4009" y="1" relative="1" as="geometry">
            <mxPoint x="-14" y="-2" as="offset" />
          </mxGeometry>
        </mxCell>
        <mxCell id="Kh6UWCqLEouyqFOK7ntM-11" value="subject" style="endArrow=classic;html=1;rounded=0;entryX=0.589;entryY=1.005;entryDx=0;entryDy=0;exitX=0.75;exitY=0;exitDx=0;exitDy=0;entryPerimeter=0;" parent="WIyWlLk6GJQsqaUBKTNV-1" source="Kh6UWCqLEouyqFOK7ntM-5" target="Kh6UWCqLEouyqFOK7ntM-7" edge="1">
          <mxGeometry width="50" height="50" relative="1" as="geometry">
            <mxPoint x="515" y="10" as="sourcePoint" />
            <mxPoint x="560" y="-40" as="targetPoint" />
          </mxGeometry>
        </mxCell>
        <mxCell id="Kh6UWCqLEouyqFOK7ntM-12" value="Medication&lt;br&gt;&lt;i&gt;Batch 2&lt;/i&gt;" style="rounded=1;whiteSpace=wrap;html=1;fontSize=12;glass=0;strokeWidth=1;shadow=0;fillColor=#dae8fc;strokeColor=#6c8ebf;" parent="WIyWlLk6GJQsqaUBKTNV-1" vertex="1">
          <mxGeometry x="590" y="-80" width="110" height="40" as="geometry" />
        </mxCell>
        <mxCell id="Kh6UWCqLEouyqFOK7ntM-15" value="Observation - &lt;i&gt;Test Name and result&lt;/i&gt;" style="rounded=1;whiteSpace=wrap;html=1;fontSize=12;glass=0;strokeWidth=1;shadow=0;fillColor=#b6d7a8;strokeColor=#82b366;" parent="WIyWlLk6GJQsqaUBKTNV-1" vertex="1">
          <mxGeometry x="600" y="17.5" width="138" height="50" as="geometry" />
        </mxCell>
        <mxCell id="Kh6UWCqLEouyqFOK7ntM-16" value="Observation - &lt;i&gt;Test Name and result&lt;/i&gt;" style="rounded=1;whiteSpace=wrap;html=1;fontSize=12;glass=0;strokeWidth=1;shadow=0;fillColor=#b6d7a8;strokeColor=#82b366;" parent="WIyWlLk6GJQsqaUBKTNV-1" vertex="1">
          <mxGeometry x="600" y="67.5" width="138" height="50" as="geometry" />
        </mxCell>
        <mxCell id="Kh6UWCqLEouyqFOK7ntM-19" value="results" style="endArrow=classic;html=1;rounded=0;exitX=0.5;exitY=0;exitDx=0;exitDy=0;entryX=0.5;entryY=1;entryDx=0;entryDy=0;labelBackgroundColor=none;" parent="WIyWlLk6GJQsqaUBKTNV-1" source="fafH0U7rZojqmzMNoOSG-25" target="Kh6UWCqLEouyqFOK7ntM-16" edge="1">
          <mxGeometry x="0.2979" y="-12" width="50" height="50" relative="1" as="geometry">
            <mxPoint x="600" y="170" as="sourcePoint" />
            <mxPoint x="529" y="125" as="targetPoint" />
            <mxPoint x="1" as="offset" />
          </mxGeometry>
        </mxCell>
        <mxCell id="Kh6UWCqLEouyqFOK7ntM-21" value="defined" style="endArrow=classic;html=1;rounded=0;entryX=1;entryY=0.5;entryDx=0;entryDy=0;dashed=1;exitX=0;exitY=0.5;exitDx=0;exitDy=0;" parent="WIyWlLk6GJQsqaUBKTNV-1" source="Kh6UWCqLEouyqFOK7ntM-6" target="fafH0U7rZojqmzMNoOSG-42" edge="1">
          <mxGeometry width="50" height="50" relative="1" as="geometry">
            <mxPoint x="400" y="90" as="sourcePoint" />
            <mxPoint x="230" y="100" as="targetPoint" />
          </mxGeometry>
        </mxCell>
        <mxCell id="Kh6UWCqLEouyqFOK7ntM-22" value="defined" style="endArrow=classic;html=1;rounded=0;entryX=1;entryY=0.5;entryDx=0;entryDy=0;dashed=1;exitX=0;exitY=0.5;exitDx=0;exitDy=0;" parent="WIyWlLk6GJQsqaUBKTNV-1" source="Kh6UWCqLEouyqFOK7ntM-5" target="IEeFdyCGopTc3gh3-DFE-13" edge="1">
          <mxGeometry width="50" height="50" relative="1" as="geometry">
            <mxPoint x="410" y="100" as="sourcePoint" />
            <mxPoint x="368" y="100" as="targetPoint" />
          </mxGeometry>
        </mxCell>
        <mxCell id="Kh6UWCqLEouyqFOK7ntM-24" value="subject" style="endArrow=classic;html=1;rounded=0;exitX=0.25;exitY=0;exitDx=0;exitDy=0;entryX=0.5;entryY=1;entryDx=0;entryDy=0;" parent="WIyWlLk6GJQsqaUBKTNV-1" source="Kh6UWCqLEouyqFOK7ntM-15" target="Kh6UWCqLEouyqFOK7ntM-12" edge="1">
          <mxGeometry width="50" height="50" relative="1" as="geometry">
            <mxPoint x="568" y="47.5" as="sourcePoint" />
            <mxPoint x="600" y="-20" as="targetPoint" />
          </mxGeometry>
        </mxCell>
        <mxCell id="Kh6UWCqLEouyqFOK7ntM-25" value="Ingredient" style="rounded=1;whiteSpace=wrap;html=1;fontSize=12;glass=0;strokeWidth=1;shadow=0;fillColor=#f8cecc;strokeColor=#b85450;" parent="WIyWlLk6GJQsqaUBKTNV-1" vertex="1">
          <mxGeometry x="480" y="-140" width="120" height="40" as="geometry" />
        </mxCell>
        <mxCell id="Kh6UWCqLEouyqFOK7ntM-26" value="for" style="endArrow=classic;html=1;rounded=0;entryX=1;entryY=0.25;entryDx=0;entryDy=0;exitX=0;exitY=0.5;exitDx=0;exitDy=0;" parent="WIyWlLk6GJQsqaUBKTNV-1" source="Kh6UWCqLEouyqFOK7ntM-25" target="PtvGfc8u3fFPzmpzfyYF-7" edge="1">
          <mxGeometry x="-0.3333" y="-2" width="50" height="50" relative="1" as="geometry">
            <mxPoint x="461.43000000000006" y="-50" as="sourcePoint" />
            <mxPoint x="386" y="-60" as="targetPoint" />
            <mxPoint as="offset" />
          </mxGeometry>
        </mxCell>
        <mxCell id="IEeFdyCGopTc3gh3-DFE-2" value="SubstanceDefinition&lt;br&gt;&lt;i style=&quot;border-color: var(--border-color);&quot;&gt;Stelbatolol&lt;/i&gt;" style="rounded=1;whiteSpace=wrap;html=1;fontSize=12;glass=0;strokeWidth=1;shadow=0;fillColor=#c1f0da;strokeColor=#9ebda2;" parent="WIyWlLk6GJQsqaUBKTNV-1" vertex="1">
          <mxGeometry x="640" y="-140" width="150" height="40" as="geometry" />
        </mxCell>
        <mxCell id="IEeFdyCGopTc3gh3-DFE-3" value="" style="endArrow=classic;html=1;rounded=0;exitX=1;exitY=0.5;exitDx=0;exitDy=0;" parent="WIyWlLk6GJQsqaUBKTNV-1" source="Kh6UWCqLEouyqFOK7ntM-25" edge="1">
          <mxGeometry x="-0.3333" y="-2" width="50" height="50" relative="1" as="geometry">
            <mxPoint x="490" y="-110" as="sourcePoint" />
            <mxPoint x="640" y="-120" as="targetPoint" />
            <mxPoint as="offset" />
          </mxGeometry>
        </mxCell>
        <mxCell id="IEeFdyCGopTc3gh3-DFE-5" value="SpecimenDefinition - &lt;i&gt;Storage conditions and duration&lt;/i&gt;" style="rounded=1;whiteSpace=wrap;html=1;fontSize=12;glass=0;strokeWidth=1;shadow=0;fillColor=#a1bf82;strokeColor=#2D7600;fontColor=#000000;" parent="WIyWlLk6GJQsqaUBKTNV-1" vertex="1">
          <mxGeometry x="220" y="160" width="150" height="50" as="geometry" />
        </mxCell>
        <mxCell id="IEeFdyCGopTc3gh3-DFE-6" value="req." style="endArrow=classic;html=1;rounded=0;entryX=0.5;entryY=0;entryDx=0;entryDy=0;" parent="WIyWlLk6GJQsqaUBKTNV-1" target="IEeFdyCGopTc3gh3-DFE-5" edge="1">
          <mxGeometry width="50" height="50" relative="1" as="geometry">
            <mxPoint x="295" y="120" as="sourcePoint" />
            <mxPoint x="190" y="130" as="targetPoint" />
          </mxGeometry>
        </mxCell>
        <mxCell id="IEeFdyCGopTc3gh3-DFE-13" value="ObservationDefinition - &lt;i&gt;Test Name and criteria&lt;/i&gt;" style="rounded=1;whiteSpace=wrap;html=1;fontSize=12;glass=0;strokeWidth=1;shadow=0;fillColor=#A6C499;strokeColor=#82b366;" parent="WIyWlLk6GJQsqaUBKTNV-1" vertex="1">
          <mxGeometry x="224.5" y="21.25" width="141" height="42.5" as="geometry" />
        </mxCell>
        <mxCell id="uPRwFi-8ZqYW5aY9Hn0C-0" value="&lt;font style=&quot;font-size: 16px;&quot;&gt;Stability Report&lt;/font&gt;" style="text;strokeColor=none;fillColor=none;html=1;fontSize=24;fontStyle=0;verticalAlign=middle;align=center;" parent="WIyWlLk6GJQsqaUBKTNV-1" vertex="1">
          <mxGeometry x="550" y="200" width="100" height="40" as="geometry" />
        </mxCell>
        <mxCell id="8MiQP6V50wlQTrCiQHZH-0" value="Action&lt;br&gt;at 9 months etc." style="rounded=1;whiteSpace=wrap;html=1;fontSize=12;glass=0;strokeWidth=1;shadow=0;fillColor=#dfdfdf;strokeColor=#82b366;" parent="WIyWlLk6GJQsqaUBKTNV-1" vertex="1">
          <mxGeometry x="37" y="110" width="100" height="40" as="geometry" />
        </mxCell>
      </root>
    </mxGraphModel>
  </diagram>
</mxfile>
